<svg xmlns="http://www.w3.org/2000/svg" viewBox="0 0 1196.8 1323.28"><defs><style>.cls-1{fill:#3f3f3f;}</style></defs><title>Favico_PNG</title><g id="Layer_2" data-name="Layer 2"><g id="Layer_1-2" data-name="Layer 1"><path class="cls-1" d="M568,683.06c39.4-7.17,74.64,4.57,108.06,24.06,37.94,22.12,70.18,51.21,99.34,83.67,74,82.33,130.06,175.43,166.86,279.93,9.85,28,17,56.64,20.18,86.19,2.23,20.82,2.17,41.56-3.59,61.94-3.35,11.86-8.55,22.82-17.29,31.6-12.67,12.73-25,26-38.81,37.37-41.92,34.61-89.41,44.49-141.14,27-25.09-8.5-49.24-19.78-73.74-30-19.18-8-38.35-15.85-59.15-18.77-16-2.25-31.58-.23-46.91,3.93-38.78,10.5-77.41,21.55-116.22,31.93-34.42,9.21-69.29,16.28-105,18.16-44.89,2.36-87.54-4.65-125.48-30.77h0l-1.54-1.31a.34.34,0,0,0-.47-.29l-.36-.21c-6.41-5.78-13-11.42-19.2-17.38-13.89-13.25-20.26-30.16-22.66-48.73-4.27-33.16,1.6-65.32,10.45-97.06,14.89-53.4,38.16-103.23,65.22-151.42.8-1.43,1.47-2.94,2.2-4.41,1.06-1.68,2.16-3.33,3.16-5,34.06-58.4,73.36-113,119.46-162.52,29.13-31.31,60.83-59.65,96.48-83.43,16.86-10.17,33.88-20.08,52.6-26.48C549.42,687.92,558.76,685.68,568,683.06Z"/><path class="cls-1" d="M936.76,80.45a243.34,243.34,0,0,1,25.18,73.08c5.78,32.17,6.8,64.48,4.05,97a448.62,448.62,0,0,1-35.2,141c-17.36,40.22-40,77-72.23,107.2-19.29,18.1-40.86,32.65-67.05,38.63-37.1,8.48-67.92-3.14-92.95-31-20-22.29-31.24-49.21-38.55-77.82-9.49-37.13-11.33-74.9-8.51-113a445.36,445.36,0,0,1,15.11-86.31,15.57,15.57,0,0,0,.29-2.47c6.63-18.37,12.44-37.09,20-55.05,18-42.53,42.16-81.06,77.07-112,17.86-15.84,37.73-28.51,61.24-34.06,39.64-9.35,71.56,4.07,97.14,34.49C927.7,66.48,932,73.66,936.76,80.45Z"/><path class="cls-1" d="M531.52,95.83a403,403,0,0,1,30.24,71.87,457.52,457.52,0,0,1,19.3,106.2c2.88,46.71-.49,92.78-14.3,137.73-9.47,30.82-23,59.52-45.91,82.89-20.11,20.52-44.1,32.39-73.47,31-20.53-1-38.65-8.9-55.43-20.31l-5.75-3.9h-.06l-1.28-1,.12.09-1.15-.94c-50.6-43-76.47-100.22-93-162.64a439.5,439.5,0,0,1-13.9-134.58c2.26-46.26,11.17-91,32.93-132.49a160.18,160.18,0,0,1,30.71-41.59C372.68-2.71,413.79-8.54,453.11,12.37c25.28,13.45,44.58,33.5,61,56.53,5.48,7.69,10.42,15.77,15.6,23.67l1.83,3.24Z"/><path class="cls-1" d="M130.81,828.45c-65.26-44.44-100-109-119.87-183a312.13,312.13,0,0,1-10-105.36c3-38.52,12.16-75.14,35.95-106.63,17-22.54,39.15-37.31,67.52-41.35,22.92-3.27,44.65,1.43,65.4,11.21,30.18,14.22,54.31,35.9,74.64,61.89,9.08,11.61,16.89,24.21,25.28,36.36l.76,1.3.19-.24-.22.21c10.84,19.81,20.55,40.12,27.83,61.54,19.11,56.23,26.45,113.49,14.39,172.27C307,764.27,296.83,790.17,278.38,812c-25.1,29.68-56.82,42.77-95.77,36.63-17.66-2.78-33.68-9.8-49-18.63a.32.32,0,0,0-.44-.25l-1.16-.6.1.09Z"/><path class="cls-1" d="M531.52,95.81l-1.83-3.24Z"/><path class="cls-1" d="M383.83,499.42l1.15.94Z"/><path class="cls-1" d="M270.46,502.84l-.76-1.3Z"/><path class="cls-1" d="M130.81,828.45l1.27.77Z"/><path class="cls-1" d="M233.51,1288l1.54,1.31Z"/><path class="cls-1" d="M384.86,500.28l1.28,1Z"/><path class="cls-1" d="M132,829.14l1.16.6Z"/><path class="cls-1" d="M232.67,1287.49l.36.21Z"/><path class="cls-1" d="M875.56,771.79c3.17-86,29-161.43,83.95-225.84,20.87-24.47,45.61-44.28,75.78-56.36,57-22.82,110.62-1.94,139.5,54.14,12.34,24,19,49.62,21,76.37,6.56,88-18,167-70.23,237.48-21.67,29.25-48.35,53.2-82,68.26-27,12.09-54.82,16-83.39,5.69-25.6-9.21-43.87-27-57.49-50.05-13.14-22.21-20.33-46.48-23.72-71.87C877.15,796.43,876.53,783.1,875.56,771.79Z"/></g></g></svg>